{
    "asset" : {
        "generator" : "Khronos glTF Blender I/O v3.3.32",
        "version" : "2.0"
    },
    "extensionsUsed" : [
        "KHR_materials_specular",
        "KHR_materials_ior"
    ],
    "scene" : 0,
    "scenes" : [
        {
            "name" : "Scene",
            "nodes" : [
                0
            ]
        }
    ],
    "nodes" : [
        {
            "mesh" : 0,
            "name" : "Sword",
            "rotation" : [
                -0.6532815098762512,
                0.27059805393218994,
                0.27059805393218994,
                0.6532815098762512
            ],
            "scale" : [
                0.3110004663467407,
                4.758462429046631,
                0.13537710905075073
            ],
            "translation" : [
                -20.129026412963867,
                40,
                0.7838140726089478
            ]
        }
    ],
    "materials" : [
        {
            "doubleSided" : true,
            "extensions" : {
                "KHR_materials_specular" : {
                    "specularColorFactor" : [
                        0.0754522864472815,
                        0.0754522864472815,
                        0.0754522864472815
                    ]
                },
                "KHR_materials_ior" : {
                    "ior" : 1.4500000476837158
                }
            },
            "name" : "Ruby.001",
            "pbrMetallicRoughness" : {
                "baseColorTexture" : {
                    "index" : 0
                },
                "metallicFactor" : 0,
                "metallicRoughnessTexture" : {
                    "index" : 1
                }
            }
        },
        {
            "doubleSided" : true,
            "extensions" : {
                "KHR_materials_specular" : {
                    "specularColorFactor" : [
                        0.11856783831889142,
                        0.11856783831889142,
                        0.11856783831889142
                    ]
                },
                "KHR_materials_ior" : {
                    "ior" : 1.4500000476837158
                }
            },
            "name" : "Gold",
            "pbrMetallicRoughness" : {
                "baseColorTexture" : {
                    "index" : 2
                },
                "metallicRoughnessTexture" : {
                    "index" : 3
                }
            }
        },
        {
            "doubleSided" : true,
            "extensions" : {
                "KHR_materials_specular" : {
                    "specularColorFactor" : [
                        0.12934679695875803,
                        0.12934679695875803,
                        0.12934679695875803
                    ]
                },
                "KHR_materials_ior" : {
                    "ior" : 1.4500000476837158
                }
            },
            "name" : "Steel",
            "pbrMetallicRoughness" : {
                "baseColorTexture" : {
                    "index" : 4
                },
                "metallicRoughnessTexture" : {
                    "index" : 5
                }
            }
        }
    ],
    "meshes" : [
        {
            "name" : "Cube.001",
            "primitives" : [
                {
                    "attributes" : {
                        "POSITION" : 0,
                        "TEXCOORD_0" : 1
                    },
                    "indices" : 2,
                    "material" : 0
                },
                {
                    "attributes" : {
                        "POSITION" : 3,
                        "TEXCOORD_0" : 4
                    },
                    "indices" : 5,
                    "material" : 1
                },
                {
                    "attributes" : {
                        "POSITION" : 6,
                        "TEXCOORD_0" : 7
                    },
                    "indices" : 8,
                    "material" : 2
                }
            ]
        }
    ],
    "textures" : [
        {
            "sampler" : 0,
            "source" : 0
        },
        {
            "sampler" : 0,
            "source" : 1
        },
        {
            "sampler" : 0,
            "source" : 2
        },
        {
            "sampler" : 0,
            "source" : 3
        },
        {
            "sampler" : 0,
            "source" : 4
        },
        {
            "sampler" : 0,
            "source" : 5
        }
    ],
    "images" : [
        {
            "mimeType" : "image/png",
            "name" : "TexturesCom_Plastic_Bakelite_512_albedo",
            "uri" : "swordTex/TexturesCom_Plastic_Bakelite_512_albedo.png"
        },
        {
            "mimeType" : "image/png",
            "name" : "TexturesCom_Plastic_Bakelite_512_roughness",
            "uri" : "swordTex/TexturesCom_Plastic_Bakelite_512_roughness.png"
        },
        {
            "mimeType" : "image/png",
            "name" : "TexturesCom_Metal_FineGold_512_albedo",
            "uri" : "swordTex/TexturesCom_Metal_FineGold_512_albedo.png"
        },
        {
            "mimeType" : "image/png",
            "name" : "TexturesCom_Metal_FineGold_512_metallic-TexturesCom_Metal_FineGold_512_roughness",
            "uri" : "swordTex/TexturesCom_Metal_FineGold_512_metallic-TexturesCom_Metal_FineGold_512_roughness.png"
        },
        {
            "mimeType" : "image/png",
            "name" : "TexturesCom_Metal_SteelDamascus_512_albedo",
            "uri" : "swordTex/TexturesCom_Metal_SteelDamascus_512_albedo.png"
        },
        {
            "mimeType" : "image/png",
            "name" : "TexturesCom_Metal_SteelDamascus_512_metallic-TexturesCom_Metal_SteelDamascus_512_roughness",
            "uri" : "swordTex/TexturesCom_Metal_SteelDamascus_512_metallic-TexturesCom_Metal_SteelDamascus_512_roughness.png"
        }
    ],
    "accessors" : [
        {
            "bufferView" : 0,
            "componentType" : 5126,
            "count" : 82,
            "max" : [
                3.3023529052734375,
                1.8122973442077637,
                1.8103402853012085
            ],
            "min" : [
                -2.795729637145996,
                0.9097194671630859,
                -1.0839130878448486
            ],
            "type" : "VEC3"
        },
        {
            "bufferView" : 1,
            "componentType" : 5126,
            "count" : 82,
            "type" : "VEC2"
        },
        {
            "bufferView" : 2,
            "componentType" : 5123,
            "count" : 156,
            "type" : "SCALAR"
        },
        {
            "bufferView" : 3,
            "componentType" : 5126,
            "count" : 243,
            "max" : [
                4.753331184387207,
                2.0565946102142334,
                1.087368369102478
            ],
            "min" : [
                -4.805354595184326,
                0.9097194671630859,
                -1.1041823625564575
            ],
            "type" : "VEC3"
        },
        {
            "bufferView" : 4,
            "componentType" : 5126,
            "count" : 243,
            "type" : "VEC2"
        },
        {
            "bufferView" : 5,
            "componentType" : 5123,
            "count" : 876,
            "type" : "SCALAR"
        },
        {
            "bufferView" : 6,
            "componentType" : 5126,
            "count" : 33,
            "max" : [
                1.1127142906188965,
                0.9999996423721313,
                1
            ],
            "min" : [
                -1.1126841306686401,
                -1.1290526390075684,
                -1
            ],
            "type" : "VEC3"
        },
        {
            "bufferView" : 7,
            "componentType" : 5126,
            "count" : 33,
            "type" : "VEC2"
        },
        {
            "bufferView" : 8,
            "componentType" : 5123,
            "count" : 120,
            "type" : "SCALAR"
        }
    ],
    "bufferViews" : [
        {
            "buffer" : 0,
            "byteLength" : 984,
            "byteOffset" : 0,
            "target" : 34962
        },
        {
            "buffer" : 0,
            "byteLength" : 656,
            "byteOffset" : 984,
            "target" : 34962
        },
        {
            "buffer" : 0,
            "byteLength" : 312,
            "byteOffset" : 1640,
            "target" : 34963
        },
        {
            "buffer" : 0,
            "byteLength" : 2916,
            "byteOffset" : 1952,
            "target" : 34962
        },
        {
            "buffer" : 0,
            "byteLength" : 1944,
            "byteOffset" : 4868,
            "target" : 34962
        },
        {
            "buffer" : 0,
            "byteLength" : 1752,
            "byteOffset" : 6812,
            "target" : 34963
        },
        {
            "buffer" : 0,
            "byteLength" : 396,
            "byteOffset" : 8564,
            "target" : 34962
        },
        {
            "buffer" : 0,
            "byteLength" : 264,
            "byteOffset" : 8960,
            "target" : 34962
        },
        {
            "buffer" : 0,
            "byteLength" : 240,
            "byteOffset" : 9224,
            "target" : 34963
        }
    ],
    "samplers" : [
        {
            "magFilter" : 9729,
            "minFilter" : 9987
        }
    ],
    "buffers" : [
        {
            "byteLength" : 9464,
            "uri" : "TowerSword.bin"
        }
    ]
}
